<svg width="64" height="64" viewBox="0 0 64 64" fill="none" xmlns="http://www.w3.org/2000/svg">
<defs>
<style>
@media (prefers-color-scheme: dark) {.icon { fill: white; } }
@media (prefers-color-scheme: light) {.icon { fill: black; } }
</style>
</defs>
<path fill-rule="evenodd" clip-rule="evenodd" class="icon" d="M36.8861 3.21576C39.8889 3.51361 42.6981 4.13985 44.6077 5.23544C48.5764 7.51245 49.8346 12.1026 49.9983 15.9645C50.0829 17.9587 49.8886 19.9263 49.5341 21.6111C49.2346 23.0344 48.7931 24.3881 48.2213 25.4033C52.395 27.1862 55.4085 28.6741 57.4023 29.92C58.4752 30.5904 59.3603 31.2561 59.972 31.9336C60.5322 32.5542 61.2296 33.6009 60.9266 34.883C60.6283 36.145 59.5609 36.7667 58.869 37.0624C58.0995 37.3912 57.1551 37.5943 56.1662 37.7314C54.1645 38.0091 51.4791 38.0795 48.4378 38.039C43.6338 37.9749 37.6798 37.6271 31.6376 37.2742C30.0076 37.179 28.3713 37.0835 26.7493 36.993C21.5185 36.7012 16.4483 36.4631 12.1395 36.4449C10.2995 37.1603 8.69417 37.3832 7.45095 37.3355C6.9405 37.3159 6.46645 37.2496 6.04909 37.1382C5.68773 37.0418 5.17006 36.8607 4.74242 36.4877C4.53431 36.3062 4.14384 35.9014 4.03055 35.2502C3.89368 34.4633 4.23697 33.8072 4.6557 33.4175C5.00865 33.0889 5.39866 32.9488 5.62455 32.8845C5.87902 32.8119 6.13037 32.779 6.35228 32.7645C7.86026 32.6655 9.54425 32.6206 11.3562 32.6167C11.7104 32.4559 12.0814 32.2683 12.4676 32.05C12.3203 31.671 12.152 31.2298 11.9696 30.7373C11.3387 29.034 10.5328 26.7014 9.84318 24.2048C9.1576 21.7228 8.56628 19.0058 8.39921 16.5533C8.24014 14.2182 8.42309 11.6228 9.81532 9.83041C11.419 7.76566 14.1061 6.31707 17.0146 5.30536C19.9777 4.27464 23.4346 3.60728 26.8768 3.26822C30.3235 2.9287 33.8221 2.91184 36.8861 3.21576ZM16.9072 32.7075C20.1181 32.8077 23.5364 32.9799 26.9669 33.1713C28.6212 33.2636 30.2795 33.3604 31.9232 33.4564C37.9518 33.8083 43.783 34.1488 48.4898 34.2115C51.4935 34.2516 53.9344 34.1758 55.6296 33.9407C55.8908 33.9045 56.1232 33.8658 56.3285 33.826C56.0654 33.6303 55.7388 33.4073 55.338 33.1568C53.4435 31.973 50.3045 30.4289 45.591 28.4532L46.0532 27.3729C45.8197 27.4858 45.5861 27.5838 45.3604 27.6699C44.3787 28.044 43.1961 28.3194 41.9195 28.5234C39.3574 28.9329 36.1509 29.0957 32.8165 29.0591C26.4075 28.9889 19.1387 28.1758 14.6539 26.7294C14.9859 27.7263 15.3113 28.6392 15.6003 29.4197C15.9034 30.2378 16.165 30.9062 16.3499 31.3681C16.4424 31.599 16.5156 31.778 16.5652 31.898C16.59 31.958 16.6088 32.0033 16.6212 32.0329L16.6349 32.0654L16.6384 32.0738L16.9072 32.7075ZM41.6285 43.3795C42.6963 43.3795 43.562 42.5226 43.562 41.4656C43.562 40.4086 42.6963 39.5517 41.6285 39.5517C40.5606 39.5517 39.6949 40.4086 39.6949 41.4656C39.6949 42.5226 40.5606 43.3795 41.6285 43.3795ZM21.1331 47.2072C22.2009 47.2072 23.0666 46.3504 23.0666 45.2933C23.0666 44.2363 22.2009 43.3795 21.1331 43.3795C20.0652 43.3795 19.1995 44.2363 19.1995 45.2933C19.1995 46.3504 20.0652 47.2072 21.1331 47.2072ZM35.5961 48.2353L32.4842 46.5924L30.5457 49.5089C28.7463 52.2163 26.4017 53.2573 24.6071 53.3393C22.8103 53.4214 21.6037 52.62 21.0829 51.4305L13.9865 54.4744C15.9793 59.0266 20.4765 61.1917 24.9637 60.9867C28.5125 60.8246 32.0802 59.2286 34.9181 56.3119C37.3377 57.1874 39.8163 57.5657 42.2524 57.1889C45.8442 56.6334 48.7215 54.5346 50.7615 51.3794L44.2472 47.2527C43.1936 48.8823 42.1072 49.4629 41.0585 49.6251C39.8606 49.8104 38.0708 49.5417 35.5961 48.2353Z"/>
</svg>
