<svg width="64" height="64" viewBox="0 0 64 64" fill="none" xmlns="http://www.w3.org/2000/svg">
<defs>
  <style>
    @media (prefers-color-scheme: dark) {
      .icon {
        fill: white;
      }
    }
    @media (prefers-color-scheme: light) {
      .icon {
        fill: black;
      }
    }
  </style>
</defs>
<path fill-rule="evenodd" clip-rule="evenodd" class="icon" d="M35.9627 9.17112C38.3333 9.40735 40.5511 9.90402 42.0587 10.7729C45.1919 12.5788 46.1852 16.2193 46.3145 19.2822C46.3812 20.8638 46.2279 22.4243 45.948 23.7605C45.7115 24.8894 45.363 25.963 44.9116 26.7681C48.2065 28.1822 50.5856 29.3622 52.1597 30.3504C53.0067 30.8821 53.7055 31.41 54.1884 31.9473C54.6307 32.4395 55.1813 33.2697 54.942 34.2865C54.7065 35.2874 53.8638 35.7805 53.3176 36.015C52.7102 36.2757 51.9645 36.4368 51.1839 36.5456C49.6036 36.7658 47.4835 36.8217 45.0824 36.7895C41.2898 36.7387 36.5893 36.4629 31.8192 36.183C30.5324 36.1075 29.2405 36.0317 27.96 35.96C23.8304 35.7285 19.8276 35.5397 16.4259 35.5253C14.9733 36.0927 13.7059 36.2695 12.7244 36.2316C12.3214 36.2161 11.9472 36.1635 11.6177 36.0751C11.3324 35.9987 10.9237 35.8551 10.5861 35.5592C10.4218 35.4153 10.1136 35.0943 10.0241 34.5777C9.91606 33.9537 10.1871 33.4333 10.5177 33.1242C10.7963 32.8636 11.1042 32.7525 11.2825 32.7015C11.4834 32.6439 11.6819 32.6178 11.8571 32.6063C13.0476 32.5278 14.377 32.4922 15.8075 32.4891C16.0872 32.3616 16.3801 32.2128 16.685 32.0397C16.5687 31.7391 16.4358 31.3891 16.2918 30.9985C15.7937 29.6476 15.1575 27.7976 14.613 25.8176C14.0718 23.8491 13.605 21.6942 13.4731 19.7491C13.3475 17.8972 13.4919 15.8388 14.591 14.4172C15.8571 12.7797 17.9785 11.6308 20.2747 10.8284C22.614 10.0109 25.3431 9.48164 28.0606 9.21273C30.7817 8.94345 33.5438 8.93008 35.9627 9.17112ZM20.1899 32.5612C22.7248 32.6406 25.4235 32.7772 28.1318 32.9289C29.4378 33.0021 30.747 33.0789 32.0447 33.155C36.8041 33.4342 41.4076 33.7042 45.1236 33.754C47.4949 33.7857 49.4219 33.7257 50.7602 33.5392C50.9665 33.5104 51.1499 33.4798 51.312 33.4482C51.1042 33.293 50.8465 33.1161 50.53 32.9175C49.0344 31.9786 46.5562 30.754 42.835 29.187L43.1999 28.3303C43.0156 28.4198 42.8311 28.4975 42.6529 28.5657C41.8779 28.8625 40.9443 29.0809 39.9365 29.2427C37.9138 29.5675 35.3823 29.6966 32.7498 29.6676C27.6902 29.6119 21.9516 28.967 18.411 27.8199C18.673 28.6105 18.9299 29.3345 19.1582 29.9535C19.3974 30.6024 19.6039 31.1325 19.75 31.4988C19.8229 31.6819 19.8807 31.8239 19.9199 31.9191C19.9394 31.9667 19.9543 32.0026 19.9641 32.0261L19.9749 32.0519L19.9777 32.0585L20.1899 32.5612ZM39.7067 41.0251C40.5497 41.0251 41.2331 40.3455 41.2331 39.5072C41.2331 38.6689 40.5497 37.9893 39.7067 37.9893C38.8636 37.9893 38.1802 38.6689 38.1802 39.5072C38.1802 40.3455 38.8636 41.0251 39.7067 41.0251ZM23.5261 44.0609C24.3692 44.0609 25.0526 43.3813 25.0526 42.543C25.0526 41.7047 24.3692 41.0251 23.5261 41.0251C22.6831 41.0251 21.9996 41.7047 21.9996 42.543C21.9996 43.3813 22.6831 44.0609 23.5261 44.0609ZM34.9443 44.8763L32.4875 43.5733L30.9571 45.8864C29.5365 48.0336 27.6856 48.8592 26.2688 48.9243C24.8503 48.9894 23.8976 48.3538 23.4865 47.4104L17.884 49.8245C19.4573 53.4349 23.0078 55.152 26.5503 54.9895C29.352 54.8609 32.1685 53.5951 34.4091 51.2818C36.3193 51.9762 38.276 52.2762 40.1993 51.9774C43.0349 51.5368 45.3064 49.8722 46.9169 47.3699L41.7741 44.097C40.9423 45.3894 40.0846 45.8499 39.2567 45.9785C38.311 46.1255 36.898 45.9124 34.9443 44.8763Z"/>
</svg>
